<?xml version="1.0" encoding="UTF-8" standalone="no"?>
<svg width="16px" height="17px" viewBox="0 0 16 17" version="1.1" xmlns="http://www.w3.org/2000/svg" xmlns:xlink="http://www.w3.org/1999/xlink">
    <!-- Generator: Sketch 42 (36781) - http://www.bohemiancoding.com/sketch -->
    <title>Icon</title>
    <desc>Created with Sketch.</desc>
    <defs>
        <rect id="path-1" x="0" y="1.68421053" width="15.1578947" height="2.52631579" rx="1.26315789"></rect>
        <mask id="mask-2" maskContentUnits="userSpaceOnUse" maskUnits="objectBoundingBox" x="0" y="0" width="15.1578947" height="2.52631579" fill="white">
            <use xlink:href="#path-1"></use>
        </mask>
        <path d="M7.57894737,2.52631579 C8.50911116,2.52631579 9.26315789,2.61437432 9.26315789,1.68421053 C9.26315789,0.754046737 8.50911116,0 7.57894737,0 C6.64878358,0 5.89473684,0.754046737 5.89473684,1.68421053 C5.89473684,2.61437432 6.64878358,2.52631579 7.57894737,2.52631579 Z" id="path-3"></path>
        <mask id="mask-4" maskContentUnits="userSpaceOnUse" maskUnits="objectBoundingBox" x="0" y="0" width="3.36842105" height="2.52854753" fill="white">
            <use xlink:href="#path-3"></use>
        </mask>
    </defs>
    <g id="Page-1" stroke="none" stroke-width="1" fill="none" fill-rule="evenodd">
        <g id="Artboard" transform="translate(-2032.000000, -58.000000)">
            <g id="Group-16" transform="translate(1512.000000, 22.000000)">
                <g id="Group-8">
                    <g id="Icon" transform="translate(520.000000, 36.000000)">
                        <path d="M1.6833676,4.21052632 L2.38262119,14.0000765 C2.46151599,15.1046037 3.42232236,16 4.52211422,16 L10.6349376,16 C11.7376522,16 12.6948737,15.1138733 12.7744306,14.0000765 L13.4736842,4.21052632" id="Line-56" stroke="#36434D" stroke-linecap="round" stroke-linejoin="round"></path>
                        <path d="M5.47368421,6.73684211 L5.47368421,12.6315789" id="Line-55" stroke="#35424C" stroke-linecap="round"></path>
                        <path d="M9.68421053,6.73684211 L9.68421053,12.6315789" id="Line-54" stroke="#35424C" stroke-linecap="round"></path>
                        <use id="Line-53" stroke="#35424C" mask="url(#mask-2)" stroke-width="2" stroke-linecap="square" xlink:href="#path-1"></use>
                        <use id="Line-52" stroke="#35424C" mask="url(#mask-4)" stroke-width="2" stroke-linecap="square" xlink:href="#path-3"></use>
                    </g>
                </g>
            </g>
        </g>
    </g>
</svg>