<?xml version="1.0" encoding="utf-8"?>
<svg viewBox="0 0 500 500" xmlns="http://www.w3.org/2000/svg">
  <path style="fill: rgb(255, 152, 0);" d="M 437.361 192.507 L 205.527 192.507 L 277.202 120.321 C 297.332 100.054 297.336 67.19 277.213 46.917 C 257.089 26.644 224.458 26.64 204.329 46.907 L 17.572 234.995 C 13.735 238.86 13.735 245.126 17.572 248.993 L 204.329 437.081 C 224.452 457.348 257.08 457.348 277.203 437.081 C 297.327 416.814 297.327 383.954 277.203 363.687 L 277.203 363.687 L 205.528 291.501 L 437.362 291.501 C 464.505 291.501 486.508 269.341 486.508 242.004 C 486.508 214.668 464.504 192.507 437.361 192.507 Z" transform="matrix(-1, 0, 0, -1, 501.20224, 483.990753)"/>
  <g transform="matrix(-0.921496, 0, 0, -0.928068, 486.509094, 479.585052)" style=""/>
  <g transform="matrix(-0.921496, 0, 0, -0.928068, 486.509094, 479.585052)" style=""/>
  <g transform="matrix(-0.921496, 0, 0, -0.928068, 486.509094, 479.585052)" style=""/>
  <g transform="matrix(-0.921496, 0, 0, -0.928068, 486.509094, 479.585052)" style=""/>
  <g transform="matrix(-0.921496, 0, 0, -0.928068, 486.509094, 479.585052)" style=""/>
  <g transform="matrix(-0.921496, 0, 0, -0.928068, 486.509094, 479.585052)" style=""/>
  <g transform="matrix(-0.921496, 0, 0, -0.928068, 486.509094, 479.585052)" style=""/>
  <g transform="matrix(-0.921496, 0, 0, -0.928068, 486.509094, 479.585052)" style=""/>
  <g transform="matrix(-0.921496, 0, 0, -0.928068, 486.509094, 479.585052)" style=""/>
  <g transform="matrix(-0.921496, 0, 0, -0.928068, 486.509094, 479.585052)" style=""/>
  <g transform="matrix(-0.921496, 0, 0, -0.928068, 486.509094, 479.585052)" style=""/>
  <g transform="matrix(-0.921496, 0, 0, -0.928068, 486.509094, 479.585052)" style=""/>
  <g transform="matrix(-0.921496, 0, 0, -0.928068, 486.509094, 479.585052)" style=""/>
  <g transform="matrix(-0.921496, 0, 0, -0.928068, 486.509094, 479.585052)" style=""/>
  <g transform="matrix(-0.921496, 0, 0, -0.928068, 486.509094, 479.585052)" style=""/>
</svg>