<?xml version="1.0" encoding="UTF-8" standalone="no"?>
<svg width="16px" height="13px" viewBox="0 0 16 13" version="1.1" xmlns="http://www.w3.org/2000/svg" xmlns:xlink="http://www.w3.org/1999/xlink">
    <!-- Generator: Sketch 42 (36781) - http://www.bohemiancoding.com/sketch -->
    <title>Icon-Share</title>
    <desc>Created with Sketch.</desc>
    <defs></defs>
    <g id="Page-1" stroke="none" stroke-width="1" fill="none" fill-rule="evenodd">
        <g id="Artboard-2" transform="translate(-510.000000, -51.000000)">
            <g id="Icon-Share" transform="translate(518.000000, 55.500000) scale(1, -1) translate(-518.000000, -55.500000) translate(510.000000, 47.000000)">
                <rect id="16X16" x="0" y="1" width="16" height="16"></rect>
                <g id="Shape-Share" fill="#36434D">
                    <path d="M15,1 L15,7.5 C15,7.775 14.775,8 14.5,8 L1.5,8 C1.224,8 1,7.775 1,7.5 L1,1 C1,0.724 0.776,0.5 0.5,0.5 C0.224,0.5 0,0.724 0,1 L0,7.5 C0,8.327 0.673,9 1.5,9 L14.5,9 C15.327,9 16,8.327 16,7.5 L16,1 C16,0.724 15.776,0.5 15.5,0.5 C15.224,0.5 15,0.724 15,1 Z" id="Fill-1" transform="translate(8.000000, 4.750000) scale(1, -1) translate(-8.000000, -4.750000) "></path>
                    <path d="M4.872,8.826 L7.5,5.831 L7.5,12.5 C7.5,12.776 7.724,13 8,13 C8.276,13 8.5,12.776 8.5,12.5 L8.5,5.831 L11.124,8.829 C11.219,8.931 11.35,9 11.5,9 C11.776,9 12,8.776 12,8.5 C12,8.374 11.949,8.262 11.872,8.174 L8.376,4.171 C8.281,4.07 8.15,4 8,4 C7.85,4 7.719,4.07 7.628,4.174 L4.124,8.171 C4.051,8.262 4,8.374 4,8.5 C4,8.776 4.224,9 4.5,9 C4.65,9 4.781,8.93 4.872,8.826 Z" id="Fill-3"></path>
                </g>
            </g>
        </g>
    </g>
</svg>