<?xml version="1.0" encoding="utf-8"?>
<svg viewBox="0 13.218 182.758 208.046" xmlns="http://www.w3.org/2000/svg">
  <path style="fill: rgb(255, 152, 0);" d="M 121.422 77.255 L 56.784 77.255 L 76.769 56.033 C 82.381 50.075 82.382 40.413 76.771 34.453 C 71.16 28.492 62.062 28.492 56.45 34.45 L 4.378 89.745 C 3.309 90.882 3.309 92.724 4.378 93.861 L 56.45 149.156 C 62.06 155.115 71.158 155.115 76.769 149.156 C 82.38 143.199 82.38 133.539 76.769 127.58 L 76.769 127.58 L 56.784 106.357 L 121.423 106.357 C 128.992 106.357 135.127 99.843 135.127 91.807 C 135.127 83.769 128.992 77.255 121.422 77.255 Z" transform="matrix(0, -1, 1, 0, -22.451944, 161.155197)"/>
</svg>