<?xml version="1.0" encoding="UTF-8" standalone="no"?>
<svg width="18px" height="16px" viewBox="0 0 18 16" version="1.1" xmlns="http://www.w3.org/2000/svg" xmlns:xlink="http://www.w3.org/1999/xlink">
    <!-- Generator: Sketch 44.1 (41455) - http://www.bohemiancoding.com/sketch -->
    <title>ic_local_printshop</title>
    <desc>Created with Sketch.</desc>
    <defs></defs>
    <g id="Page-1" stroke="none" stroke-width="1" fill="none" fill-rule="evenodd">
        <g id="Artboard-2" transform="translate(-548.000000, -112.000000)" stroke="#36434D">
            <g id="Group-8" transform="translate(549.000000, 111.000000)">
                <g id="ic_local_printshop" transform="translate(0.000000, 2.000000)">
                    <g id="Icon-24px">
                        <path d="M2.33333333,3.88888889 C1.04222222,3.88888889 0,4.93111111 0,6.22222222 L0,10.8888889 L3.11111111,10.8888889 L3.11111111,14 L12.4444444,14 L12.4444444,10.8888889 L15.5555556,10.8888889 L15.5555556,6.22222222 C15.5555556,4.93111111 14.5133333,3.88888889 13.2222222,3.88888889 L2.33333333,3.88888889 Z M10.8888889,12.4444444 L4.66666667,12.4444444 L4.66666667,8.55555556 L10.8888889,8.55555556 L10.8888889,12.4444444 L10.8888889,12.4444444 Z M13.2222222,7 C12.7944444,7 12.4444444,6.65 12.4444444,6.22222222 C12.4444444,5.79444444 12.7944444,5.44444444 13.2222222,5.44444444 C13.65,5.44444444 14,5.79444444 14,6.22222222 C14,6.65 13.65,7 13.2222222,7 L13.2222222,7 Z M12.4444444,0 L3.11111111,0 L3.11111111,3.88888889 L12.4444444,3.88888889 L12.4444444,0 L12.4444444,0 Z" id="Shape"></path>
                    </g>
                </g>
            </g>
        </g>
    </g>
</svg>