<?xml version="1.0" encoding="UTF-8"?>
<svg xmlns="http://www.w3.org/2000/svg" viewBox="0 0 16 16" width="16px" height="16px">
<g id="surface40893872">
<path style=" stroke:none;fill-rule:nonzero;fill:rgb(100%,57.647061%,2.745098%);fill-opacity:1;" d="M 6.933594 1.601562 C 6.789062 1.597656 6.652344 1.652344 6.550781 1.753906 C 6.449219 1.855469 6.394531 1.992188 6.394531 2.132812 L 3.199219 2.132812 C 3.007812 2.128906 2.828125 2.230469 2.730469 2.398438 C 2.636719 2.5625 2.636719 2.769531 2.730469 2.933594 C 2.828125 3.101562 3.007812 3.203125 3.199219 3.199219 L 12.800781 3.199219 C 12.992188 3.203125 13.171875 3.101562 13.269531 2.933594 C 13.363281 2.769531 13.363281 2.5625 13.269531 2.398438 C 13.171875 2.230469 12.992188 2.128906 12.800781 2.132812 L 9.605469 2.132812 C 9.605469 1.992188 9.550781 1.855469 9.449219 1.753906 C 9.347656 1.652344 9.210938 1.597656 9.066406 1.601562 Z M 3.199219 4.265625 L 3.199219 12.800781 C 3.199219 13.390625 3.675781 13.867188 4.265625 13.867188 L 11.734375 13.867188 C 12.324219 13.867188 12.800781 13.390625 12.800781 12.800781 L 12.800781 4.265625 Z M 3.199219 4.265625 "/>
</g>
</svg>
